<?xml version="1.0" encoding="UTF-8"?><svg id="Camada_1" xmlns="http://www.w3.org/2000/svg" viewBox="0 0 390.27 79"><defs><style>.cls-1{fill:#c00d0d;}.cls-2{fill:#15335a;}</style></defs><path class="cls-1" d="M51.8,24.86c-3-3.12-7.27-4.27-10.64-2.55-4.31,2.26-5.59,8.38-2.79,13.68,2.75,5.34,8.5,7.81,12.82,5.59,3.74-1.93,5.18-6.78,3.74-11.46,11.67,20.71-7.31,36.36-22.68,21.65-23.62-22.6,3.98-74.19,31.39-20.46C43.66-25.34-16.48,2.8,4.31,53.08c21.24,51.39,88.94,18.08,47.49-28.22"/><path class="cls-2" d="M102.25,45.28h5.38v14.34c-.45,.16-1.23,.25-2.3,.25-5.46,0-10.97-5.18-10.97-19.43,0-15.36,6.24-20.75,14.13-20.75,2.79,0,5.01,.45,6.78,1.31l1.93-9.94c-1.85-.86-5.09-1.77-9.57-1.77-12.74,0-24.98,8.96-25.22,30.52-.16,10.19,2.55,18.98,7.64,23.91,3.86,3.94,9.04,5.87,15.9,5.87,4.31,0,9.65-1.07,12.2-2.1v-31.63h-15.9v9.41h0Z"/><polygon class="cls-2" points="135.52 43.1 148.96 43.1 148.96 33.53 135.52 33.53 135.52 19.89 149.74 19.89 149.74 9.86 123.98 9.86 123.98 69.1 150.72 69.1 150.72 59.08 135.52 59.08 135.52 43.1"/><path class="cls-2" d="M164.28,9.86l-12.82,59.24h11.17l2.63-13.56h10.64l2.55,13.56h11.17l-11.54-59.24h-13.8Zm2.1,36.77l2.22-12.41c.62-3.41,1.48-9.49,2.1-13.43h.25c.53,3.86,1.31,9.86,1.93,13.43l1.93,12.41h-8.42Z"/><path class="cls-2" d="M221.43,14.18c-3.78-3.62-9.24-4.56-16.1-4.56-4.4,0-8.79,.45-12.04,1.15v58.38h11.5v-22.06c.78,.08,1.48,.08,2.3,.08,4.85,0,10.72-1.77,14.42-5.71,3.08-3.25,5.01-7.81,5.01-14.26,0-5.01-1.56-9.94-5.09-13.02m-14.67,23.66c-.7,0-1.31,0-1.93-.08V19.35c.7-.25,1.77-.45,2.79-.45,5.38,0,7.48,4.03,7.48,9.24,0,5.55-2.55,9.7-8.34,9.7"/><path class="cls-1" d="M252.73,44.29c-4.07-2.79-5.09-4.31-5.09-7.03s1.77-5.26,5.26-5.26c2.22,0,3.9,.78,5.51,1.85l1.68-4.93c-1.68-1.03-4.07-2.14-7.31-2.14-6.37,0-11.26,4.64-11.26,11.38,0,4.64,2.88,8.22,8.22,11.63,4.15,2.79,5.26,4.93,5.26,8.05,0,3.66-2.38,5.92-6.04,5.92-2.63,0-5.18-1.19-6.61-2.14l-1.6,4.93c1.77,1.44,5.09,2.38,8.05,2.38,6.78,0,12.37-3.98,12.37-12.2,.04-5.67-3.7-9.41-8.42-12.45"/><path class="cls-1" d="M289.62,41.33c0-9.16-3.49-14.5-11.71-14.5-4.07,0-7.81,1.44-9.57,2.71l1.44,4.56c1.93-1.36,4.23-2.14,6.78-2.14,5.09,0,6.53,3.74,6.53,9.24v1.27c-9.24,.08-17.46,4.56-17.46,14.91,0,7.11,4.23,11.71,9.65,11.71,3.57,0,6.45-1.85,8.22-5.01h.25l.41,4.31h5.83c-.33-2.63-.41-6.2-.41-9.33v-17.75h.04Zm-6.37,14.13c0,.78-.08,1.6-.25,2.38-.78,4.07-3.12,6.2-6,6.2-2.3,0-5.01-1.85-5.01-7.27,0-8.91,7.89-9.57,11.26-9.57v8.26h0Z"/><polygon class="cls-1" points="321.79 10.64 315.09 10.64 308.56 22.06 312.92 22.06 321.79 10.64"/><path class="cls-1" d="M323.47,27.41h-6.53v27.03c0,1.36-.08,2.63-.33,3.74-.33,1.85-2.05,5.42-5.83,5.42-4.48,0-5.51-4.77-5.51-11.17V27.41h-6.53v25.92c0,10.19,2.88,15.78,9.98,15.78,4.4,0,7.56-2.96,8.75-5.01h.16l.49,4.31h5.67c-.08-3.04-.33-6.7-.33-11.17V27.41Z"/><path class="cls-1" d="M357.37,9.78h-6.45V31.64h-.16c-1.6-3.49-4.48-4.85-7.56-4.85-6.29,0-12.28,6.78-12.28,21.28,0,13.56,5.01,21.03,11.87,21.03,4.4,0,7.27-2.88,8.63-5.75h.25l.41,5.09h5.59c-.08-2.38-.33-7.03-.33-9.82V9.78h.04Zm-6.45,44.16c0,1.03-.08,1.93-.25,2.71-1.44,5.92-4.23,7.03-6.29,7.03-4.77,0-6.94-6.94-6.94-15.61,0-8.13,1.85-15.69,7.31-15.69,3.12,0,5.67,3.66,6.12,7.97,.08,.86,.08,1.85,.08,2.71v10.89h-.04Z"/><path class="cls-1" d="M390.27,44.78c0-9.16-3.41-17.95-11.71-17.95s-13.89,8.3-13.89,21.53c0,12.53,5.09,20.58,14.91,20.58,3.33,0,6.78-.78,9.08-1.97l-1.11-4.77c-1.6,.86-3.9,1.52-6.78,1.52-4.64,0-9.65-2.63-9.65-15.24h18.98c.08-.99,.16-2.1,.16-3.7m-6.24-1.11h-12.78c.25-5.59,2.38-11.79,6.7-11.79,3.08,0,6.16,3.66,6.08,11.79"/></svg>